<?xml version="1.0" encoding="UTF-8" standalone="no"?>
<!DOCTYPE svg PUBLIC "-//W3C//DTD SVG 1.1//EN" "http://www.w3.org/Graphics/SVG/1.1/DTD/svg11.dtd">
<svg width="100%" height="100%" viewBox="0 0 3508 2481" version="1.1" xmlns="http://www.w3.org/2000/svg" xmlns:xlink="http://www.w3.org/1999/xlink" xml:space="preserve" xmlns:serif="http://www.serif.com/" style="fill-rule:evenodd;clip-rule:evenodd;stroke-linejoin:round;stroke-miterlimit:2;">
    <g id="Logo">
        <g id="Right">
            <path id="RLight" d="M2375,975.735L1800,1500L2075,1500L2375,975.735Z" style="fill:rgb(204,204,204);"/>
            <path id="RDark" d="M2075,1500L2375,975.735L2600,1500L2075,1500Z" style="fill:rgb(51,51,51);"/>
        </g>
        <g id="Left" transform="matrix(-1,0,0,1,3600,0)">
            <path id="LLight" d="M2375,975.735L1800,1500L2075,1500L2375,975.735Z" style="fill:rgb(51,51,51);"/>
            <path id="LDark" d="M2075,1500L2375,975.735L2600,1500L2075,1500Z" style="fill:rgb(204,204,204);"/>
        </g>
        <g id="Middle">
            <g id="MRight" transform="matrix(5.22441e-17,0.853211,-0.551351,3.37605e-17,2624.73,-814.335)">
                <path d="M2258.33,725L2712.5,1495.83L1804.17,1495.83L2258.33,725Z" style="fill:rgb(51,51,51);"/>
            </g>
            <g id="MLeft" transform="matrix(-5.22441e-17,0.853211,0.551351,3.37605e-17,975.27,-814.335)">
                <path d="M2258.33,725L2712.5,1495.83L1804.17,1495.83L2258.33,725Z" style="fill:rgb(204,204,204);"/>
            </g>
        </g>
        <g id="Bottom">
            <path id="BRight" d="M1800,1725L1944.74,1725L1800,1975L1800,1725Z" style="fill:rgb(204,204,204);"/>
            <g id="BLeft" transform="matrix(-1,0,0,1,3600,0)">
                <path d="M1800,1725L1944.74,1725L1800,1975L1800,1725Z" style="fill:rgb(51,51,51);"/>
            </g>
        </g>
        <g id="Title" transform="matrix(5.13002,0,0,5.13313,-4273.07,-6622.25)">
            <g transform="matrix(50,0,0,50,1023.88,1621.74)">
                <path d="M0.511,0L0.511,-0.48L0.507,-0.45L0.344,0L0.311,0L0.147,-0.45L0.143,-0.48L0.143,0L0.08,0L0.08,-0.7L0.113,-0.7L0.325,-0.126L0.327,-0.1L0.329,-0.126L0.541,-0.7L0.574,-0.7L0.574,0L0.511,0Z" style="fill:rgb(51,51,51);fill-rule:nonzero;"/>
            </g>
            <g transform="matrix(50,0,0,50,1056.07,1621.74)">
                <path d="M0.464,-0.162C0.464,-0.138 0.459,-0.116 0.45,-0.095C0.441,-0.074 0.429,-0.056 0.414,-0.041C0.398,-0.025 0.38,-0.013 0.359,-0.004C0.338,0.005 0.316,0.01 0.292,0.01L0.242,0.01C0.218,0.01 0.196,0.005 0.175,-0.004C0.154,-0.013 0.136,-0.025 0.12,-0.041C0.104,-0.056 0.092,-0.074 0.083,-0.095C0.074,-0.116 0.07,-0.138 0.07,-0.162L0.07,-0.538C0.07,-0.562 0.074,-0.584 0.083,-0.605C0.092,-0.626 0.104,-0.644 0.12,-0.66C0.136,-0.675 0.154,-0.688 0.175,-0.697C0.196,-0.705 0.218,-0.71 0.242,-0.71L0.292,-0.71C0.316,-0.71 0.338,-0.705 0.359,-0.697C0.38,-0.688 0.398,-0.675 0.414,-0.66C0.429,-0.644 0.441,-0.626 0.45,-0.605C0.459,-0.584 0.464,-0.562 0.464,-0.538L0.464,-0.162ZM0.401,-0.538C0.401,-0.554 0.398,-0.568 0.392,-0.582C0.386,-0.595 0.378,-0.607 0.368,-0.617C0.358,-0.627 0.346,-0.635 0.333,-0.641C0.319,-0.647 0.305,-0.65 0.289,-0.65L0.245,-0.65C0.229,-0.65 0.215,-0.647 0.201,-0.641C0.188,-0.635 0.176,-0.627 0.166,-0.617C0.156,-0.607 0.147,-0.595 0.142,-0.582C0.136,-0.568 0.133,-0.554 0.133,-0.538L0.133,-0.162C0.133,-0.146 0.136,-0.132 0.142,-0.118C0.147,-0.105 0.156,-0.093 0.166,-0.083C0.176,-0.073 0.188,-0.064 0.201,-0.059C0.215,-0.053 0.229,-0.05 0.245,-0.05L0.289,-0.05C0.305,-0.05 0.319,-0.053 0.333,-0.059C0.346,-0.064 0.358,-0.073 0.368,-0.083C0.378,-0.093 0.386,-0.105 0.392,-0.118C0.398,-0.132 0.401,-0.146 0.401,-0.162L0.401,-0.538Z" style="fill:rgb(51,51,51);fill-rule:nonzero;"/>
            </g>
            <g transform="matrix(50,0,0,50,1082.28,1621.74)">
                <path d="M0.464,-0.162C0.464,-0.138 0.459,-0.116 0.45,-0.095C0.441,-0.074 0.429,-0.056 0.414,-0.041C0.398,-0.025 0.38,-0.013 0.359,-0.004C0.338,0.005 0.316,0.01 0.292,0.01L0.242,0.01C0.218,0.01 0.196,0.005 0.175,-0.004C0.154,-0.013 0.136,-0.025 0.12,-0.041C0.104,-0.056 0.092,-0.074 0.083,-0.095C0.074,-0.116 0.07,-0.138 0.07,-0.162L0.07,-0.7L0.133,-0.7L0.133,-0.162C0.133,-0.146 0.136,-0.132 0.142,-0.118C0.147,-0.105 0.156,-0.093 0.166,-0.083C0.176,-0.073 0.188,-0.064 0.201,-0.059C0.215,-0.053 0.229,-0.05 0.245,-0.05L0.289,-0.05C0.305,-0.05 0.319,-0.053 0.333,-0.059C0.346,-0.064 0.358,-0.073 0.368,-0.083C0.378,-0.093 0.386,-0.105 0.392,-0.118C0.398,-0.132 0.401,-0.146 0.401,-0.162L0.401,-0.7L0.464,-0.7L0.464,-0.162Z" style="fill:rgb(51,51,51);fill-rule:nonzero;"/>
            </g>
            <g transform="matrix(50,0,0,50,1108.49,1621.74)">
                <path d="M0.441,0L0.149,-0.51L0.143,-0.54L0.143,0L0.08,0L0.08,-0.7L0.113,-0.7L0.405,-0.19L0.411,-0.16L0.411,-0.7L0.474,-0.7L0.474,0L0.441,0Z" style="fill:rgb(51,51,51);fill-rule:nonzero;"/>
            </g>
            <g transform="matrix(50,0,0,50,1135.7,1621.74)">
                <path d="M0.25,-0.64L0.25,0L0.187,0L0.187,-0.64L0.02,-0.64L0.02,-0.7L0.417,-0.7L0.417,-0.64L0.25,-0.64Z" style="fill:rgb(51,51,51);fill-rule:nonzero;"/>
            </g>
            <g transform="matrix(50,0,0,50,1155.56,1621.74)">
                <path d="M0.343,-0.163L0.121,-0.163L0.075,0L0.01,0L0.215,-0.7L0.248,-0.7L0.454,0L0.389,0L0.343,-0.163ZM0.138,-0.223L0.326,-0.223L0.234,-0.546L0.232,-0.572L0.23,-0.546L0.138,-0.223Z" style="fill:rgb(51,51,51);fill-rule:nonzero;"/>
            </g>
            <g transform="matrix(50,0,0,50,1178.25,1621.74)">
                <rect x="0.08" y="-0.7" width="0.063" height="0.7" style="fill:rgb(51,51,51);fill-rule:nonzero;"/>
            </g>
            <g transform="matrix(50,0,0,50,1188.91,1621.74)">
                <path d="M0.441,0L0.149,-0.51L0.143,-0.54L0.143,0L0.08,0L0.08,-0.7L0.113,-0.7L0.405,-0.19L0.411,-0.16L0.411,-0.7L0.474,-0.7L0.474,0L0.441,0Z" style="fill:rgb(51,51,51);fill-rule:nonzero;"/>
            </g>
            <g transform="matrix(50,0,0,50,1216.12,1621.74)">
                <path d="M0.474,-0.172C0.474,-0.148 0.47,-0.126 0.461,-0.105C0.452,-0.084 0.439,-0.066 0.424,-0.05C0.408,-0.035 0.39,-0.022 0.369,-0.013C0.348,-0.004 0.326,0 0.302,0L0.08,0L0.08,-0.7L0.302,-0.7C0.326,-0.7 0.348,-0.696 0.369,-0.687C0.39,-0.678 0.408,-0.666 0.424,-0.65C0.439,-0.634 0.452,-0.616 0.461,-0.595C0.47,-0.574 0.474,-0.552 0.474,-0.528L0.474,-0.521C0.474,-0.504 0.472,-0.489 0.468,-0.473C0.463,-0.458 0.457,-0.444 0.449,-0.431C0.441,-0.418 0.431,-0.406 0.42,-0.396C0.409,-0.385 0.396,-0.376 0.383,-0.369C0.396,-0.362 0.409,-0.353 0.42,-0.343C0.431,-0.332 0.441,-0.32 0.449,-0.307C0.457,-0.294 0.463,-0.28 0.468,-0.264C0.472,-0.249 0.474,-0.233 0.474,-0.217L0.474,-0.172ZM0.411,-0.227C0.411,-0.243 0.408,-0.257 0.402,-0.271C0.396,-0.284 0.388,-0.296 0.378,-0.306C0.368,-0.316 0.356,-0.324 0.343,-0.33C0.329,-0.336 0.314,-0.339 0.299,-0.339L0.143,-0.339L0.143,-0.06L0.299,-0.06C0.314,-0.06 0.329,-0.063 0.343,-0.069C0.356,-0.075 0.368,-0.083 0.378,-0.093C0.388,-0.103 0.396,-0.115 0.402,-0.128C0.408,-0.142 0.411,-0.156 0.411,-0.172L0.411,-0.227ZM0.411,-0.528C0.411,-0.543 0.408,-0.558 0.402,-0.572C0.396,-0.585 0.388,-0.597 0.378,-0.607C0.368,-0.617 0.356,-0.625 0.343,-0.631C0.329,-0.637 0.314,-0.64 0.299,-0.64L0.143,-0.64L0.143,-0.399L0.299,-0.399C0.314,-0.399 0.329,-0.402 0.343,-0.408C0.356,-0.414 0.368,-0.422 0.378,-0.432C0.388,-0.442 0.396,-0.454 0.402,-0.468C0.408,-0.481 0.411,-0.496 0.411,-0.511L0.411,-0.528Z" style="fill:rgb(51,51,51);fill-rule:nonzero;"/>
            </g>
            <g transform="matrix(50,0,0,50,1242.83,1621.74)">
                <path d="M0.264,-0.335L0.264,0L0.201,0L0.201,-0.334L0.02,-0.7L0.088,-0.7L0.232,-0.409L0.376,-0.7L0.444,-0.7L0.264,-0.335Z" style="fill:rgb(51,51,51);fill-rule:nonzero;"/>
            </g>
            <g transform="matrix(50,0,0,50,1267.02,1621.74)">
                <path d="M0.25,-0.64L0.25,0L0.187,0L0.187,-0.64L0.02,-0.64L0.02,-0.7L0.417,-0.7L0.417,-0.64L0.25,-0.64Z" style="fill:rgb(51,51,51);fill-rule:nonzero;"/>
            </g>
            <g transform="matrix(50,0,0,50,1289.87,1621.74)">
                <path d="M0.08,0L0.08,-0.7L0.474,-0.7L0.474,-0.64L0.143,-0.64L0.143,-0.38L0.411,-0.38L0.411,-0.32L0.143,-0.32L0.143,-0.06L0.474,-0.06L0.474,0L0.08,0Z" style="fill:rgb(51,51,51);fill-rule:nonzero;"/>
            </g>
            <g transform="matrix(50,0,0,50,1316.58,1621.74)">
                <path d="M0.464,-0.162C0.464,-0.138 0.459,-0.116 0.449,-0.095C0.44,-0.074 0.427,-0.056 0.411,-0.041C0.395,-0.025 0.376,-0.013 0.355,-0.004C0.333,0.005 0.311,0.01 0.287,0.01L0.237,0.01C0.213,0.01 0.191,0.005 0.169,-0.004C0.148,-0.013 0.129,-0.025 0.113,-0.041C0.097,-0.056 0.084,-0.074 0.074,-0.095C0.065,-0.116 0.06,-0.138 0.06,-0.162L0.06,-0.19L0.123,-0.2L0.123,-0.162C0.123,-0.146 0.126,-0.132 0.133,-0.118C0.139,-0.105 0.147,-0.093 0.158,-0.083C0.169,-0.073 0.181,-0.064 0.196,-0.059C0.21,-0.053 0.225,-0.05 0.24,-0.05L0.284,-0.05C0.3,-0.05 0.315,-0.053 0.329,-0.059C0.343,-0.064 0.355,-0.073 0.366,-0.083C0.376,-0.093 0.385,-0.105 0.391,-0.118C0.398,-0.132 0.401,-0.146 0.401,-0.162L0.401,-0.183C0.401,-0.207 0.396,-0.227 0.387,-0.243C0.377,-0.259 0.365,-0.273 0.349,-0.284C0.333,-0.295 0.316,-0.305 0.296,-0.313C0.276,-0.32 0.256,-0.328 0.235,-0.336C0.215,-0.344 0.194,-0.352 0.175,-0.362C0.155,-0.371 0.137,-0.383 0.122,-0.397C0.106,-0.411 0.093,-0.429 0.084,-0.449C0.075,-0.47 0.07,-0.495 0.07,-0.525L0.07,-0.538C0.07,-0.562 0.074,-0.584 0.083,-0.605C0.092,-0.626 0.104,-0.644 0.12,-0.66C0.136,-0.675 0.154,-0.688 0.175,-0.697C0.196,-0.705 0.218,-0.71 0.242,-0.71L0.287,-0.71C0.311,-0.71 0.333,-0.705 0.354,-0.697C0.375,-0.688 0.393,-0.675 0.409,-0.66C0.424,-0.644 0.437,-0.626 0.446,-0.605C0.455,-0.584 0.459,-0.562 0.459,-0.538L0.459,-0.52L0.396,-0.51L0.396,-0.538C0.396,-0.554 0.393,-0.568 0.387,-0.582C0.381,-0.595 0.373,-0.607 0.363,-0.617C0.353,-0.627 0.341,-0.635 0.328,-0.641C0.314,-0.647 0.3,-0.65 0.284,-0.65L0.245,-0.65C0.229,-0.65 0.215,-0.647 0.201,-0.641C0.188,-0.635 0.176,-0.627 0.166,-0.617C0.156,-0.607 0.147,-0.595 0.142,-0.582C0.136,-0.568 0.133,-0.554 0.133,-0.538L0.133,-0.525C0.133,-0.502 0.138,-0.484 0.147,-0.468C0.156,-0.453 0.169,-0.44 0.185,-0.429C0.2,-0.418 0.218,-0.409 0.238,-0.401C0.257,-0.393 0.278,-0.385 0.298,-0.376C0.319,-0.368 0.339,-0.359 0.359,-0.349C0.379,-0.339 0.396,-0.327 0.412,-0.312C0.428,-0.298 0.44,-0.28 0.45,-0.259C0.459,-0.238 0.464,-0.213 0.464,-0.183L0.464,-0.162Z" style="fill:rgb(51,51,51);fill-rule:nonzero;"/>
            </g>
        </g>
    </g>
</svg>
